<?xml version="1.0" encoding="utf-8"?>
<svg version="1.1" id="Layer_1" xmlns="http://www.w3.org/2000/svg" xmlns:xlink="http://www.w3.org/1999/xlink" x="0px" y="0px"
	 viewBox="0 0 100 50" style="enable-background:new 0 0 100 50;" xml:space="preserve">
<style type="text/css">
	.st0{fill:none;stroke:rgba(230,230,230,0.15);stroke-width:2;stroke-miterlimit:10;}
</style>
<g>
	<g>
		<path class="st0" d="M0,40.2c8.41,0,13.05,8.12,25.55,8.12S40.93,40.2,50,40.2"/>
		<path class="st0" d="M50,40.2c8.41,0,13.05,8.12,25.55,8.12S90.93,40.2,100,40.2"/>
	</g>
	<g>
		<path class="st0" d="M0,32.53c8.41,0,13.05,8.12,25.55,8.12S40.93,32.53,50,32.53"/>
		<path class="st0" d="M50,32.53c8.41,0,13.05,8.12,25.55,8.12s15.38-8.12,24.45-8.12"/>
	</g>
	<g>
		<path class="st0" d="M0,24.87c8.41,0,13.05,8.12,25.55,8.12S40.93,24.87,50,24.87"/>
		<path class="st0" d="M50,24.87c8.41,0,13.05,8.12,25.55,8.12s15.38-8.12,24.45-8.12"/>
	</g>
	<g>
		<path class="st0" d="M0,17.2c8.41,0,13.05,8.12,25.55,8.12S40.93,17.2,50,17.2"/>
		<path class="st0" d="M50,17.2c8.41,0,13.05,8.12,25.55,8.12S90.93,17.2,100,17.2"/>
	</g>
	<g>
		<path class="st0" d="M0,9.54c8.41,0,13.05,8.12,25.55,8.12S40.93,9.54,50,9.54"/>
		<path class="st0" d="M50,9.54c8.41,0,13.05,8.12,25.55,8.12S90.93,9.54,100,9.54"/>
	</g>
	<g>
		<path class="st0" d="M0,1.87c8.41,0,13.05,8.12,25.55,8.12S40.93,1.87,50,1.87"/>
		<path class="st0" d="M50,1.87c8.41,0,13.05,8.12,25.55,8.12S90.93,1.87,100,1.87"/>
	</g>
</g>
</svg>
