<svg width="375" height="549" viewBox="0 0 375 549" fill="none" xmlns="http://www.w3.org/2000/svg">
<g cliPath="url(#clip0)">
<path d="M266.311 549C326.338 549 375 541.251 375 531.692C375 522.134 326.338 514.385 266.311 514.385C206.284 514.385 157.623 522.134 157.623 531.692C157.623 541.251 206.284 549 266.311 549Z" fill="#E6E6E6"/>
<path d="M-202 0H374.349V0.000505385C374.349 66.7322 361.999 132.81 338.004 194.462C314.009 256.114 278.839 312.133 234.501 359.319C190.164 406.506 137.528 443.936 79.5982 469.473C21.6686 495.01 -40.4199 508.154 -103.122 508.154H-202V0Z" fill="#3F3D56"/>
<path d="M222.689 173.29C248.515 173.29 269.45 151.01 269.45 123.525C269.45 96.0404 248.515 73.7597 222.689 73.7597C196.864 73.7597 175.929 96.0404 175.929 123.525C175.929 151.01 196.864 173.29 222.689 173.29Z" fill="#F2F2F2"/>
<path d="M79.0681 26.8382C81.2817 26.8382 83.0761 24.9284 83.0761 22.5726C83.0761 20.2168 81.2817 18.307 79.0681 18.307C76.8545 18.307 75.0601 20.2168 75.0601 22.5726C75.0601 24.9284 76.8545 26.8382 79.0681 26.8382Z" fill="#FF6584"/>
<path d="M209.329 312.633C211.543 312.633 213.337 310.723 213.337 308.367C213.337 306.011 211.543 304.102 209.329 304.102C207.116 304.102 205.321 306.011 205.321 308.367C205.321 310.723 207.116 312.633 209.329 312.633Z" fill="#FF6584"/>
<path d="M222.69 26.8382C224.903 26.8382 226.698 24.9284 226.698 22.5726C226.698 20.2168 224.903 18.307 222.69 18.307C220.476 18.307 218.682 20.2168 218.682 22.5726C218.682 24.9284 220.476 26.8382 222.69 26.8382Z" fill="#F2F2F2"/>
<path d="M278.802 232.298C281.016 232.298 282.81 230.388 282.81 228.032C282.81 225.676 281.016 223.766 278.802 223.766C276.589 223.766 274.794 225.676 274.794 228.032C274.794 230.388 276.589 232.298 278.802 232.298Z" fill="#F2F2F2"/>
<path d="M119.148 142.009C121.362 142.009 123.156 140.099 123.156 137.744C123.156 135.388 121.362 133.478 119.148 133.478C116.935 133.478 115.14 135.388 115.14 137.744C115.14 140.099 116.935 142.009 119.148 142.009Z" fill="#F2F2F2"/>
<path d="M-17.125 431.359C58.1368 431.359 119.148 366.426 119.148 286.328C119.148 206.23 58.1368 141.298 -17.125 141.298C-92.3867 141.298 -153.398 206.23 -153.398 286.328C-153.398 366.426 -92.3867 431.359 -17.125 431.359Z" fill="#F2F2F2"/>
<path opacity="0.2" d="M-23.1372 407.187C-3.95279 407.187 11.5992 390.636 11.5992 370.218C11.5992 349.801 -3.95279 333.25 -23.1372 333.25C-42.3215 333.25 -57.8735 349.801 -57.8735 370.218C-57.8735 390.636 -42.3215 407.187 -23.1372 407.187Z" fill="black"/>
<path opacity="0.2" d="M218.622 102.768C221.171 102.768 223.238 100.569 223.238 97.8552C223.238 95.1418 221.171 92.9421 218.622 92.9421C216.072 92.9421 214.005 95.1418 214.005 97.8552C214.005 100.569 216.072 102.768 218.622 102.768Z" fill="black"/>
<path opacity="0.2" d="M22.8957 200.166C25.4453 200.166 27.5121 197.966 27.5121 195.253C27.5121 192.539 25.4453 190.34 22.8957 190.34C20.3461 190.34 18.2793 192.539 18.2793 195.253C18.2793 197.966 20.3461 200.166 22.8957 200.166Z" fill="black"/>
<path opacity="0.2" d="M207.385 142.022C209.935 142.022 212.001 139.822 212.001 137.109C212.001 134.395 209.935 132.196 207.385 132.196C204.835 132.196 202.769 134.395 202.769 137.109C202.769 139.822 204.835 142.022 207.385 142.022Z" fill="black"/>
<path opacity="0.2" d="M83.1357 262.88C85.6853 262.88 87.7521 260.681 87.7521 257.967C87.7521 255.254 85.6853 253.054 83.1357 253.054C80.5861 253.054 78.5193 255.254 78.5193 257.967C78.5193 260.681 80.5861 262.88 83.1357 262.88Z" fill="black"/>
<path opacity="0.2" d="M248.754 139.572C252.437 139.572 255.422 136.394 255.422 132.475C255.422 128.556 252.437 125.378 248.754 125.378C245.071 125.378 242.086 128.556 242.086 132.475C242.086 136.394 245.071 139.572 248.754 139.572Z" fill="black"/>
<path opacity="0.2" d="M45.0116 315.172C48.6944 315.172 51.6798 311.995 51.6798 308.075C51.6798 304.156 48.6944 300.979 45.0116 300.979C41.3289 300.979 38.3435 304.156 38.3435 308.075C38.3435 311.995 41.3289 315.172 45.0116 315.172Z" fill="black"/>
<path d="M12.4004 369.926C-1.93061 369.906 -16.2492 369.025 -30.487 367.289C-73.3106 362.113 -112.806 349.883 -141.697 332.851C-170.942 315.611 -185.907 295.425 -183.835 276.01C-182.4 262.559 -170.184 250.52 -146.49 239.206C-146.166 239.052 -145.799 239.041 -145.468 239.175C-145.138 239.31 -144.871 239.578 -144.726 239.922C-144.581 240.266 -144.57 240.657 -144.696 241.009C-144.821 241.361 -145.073 241.646 -145.396 241.801C-168.155 252.668 -179.86 263.963 -181.18 276.331C-183.122 294.528 -168.64 313.717 -140.402 330.364C-111.811 347.219 -72.6687 359.328 -30.1856 364.463C12.2977 369.598 52.9943 367.137 84.4089 357.535C115.435 348.052 133.592 332.808 135.533 314.61C136.847 302.299 130.475 289.246 117.107 276.861C116.84 276.614 116.676 276.263 116.652 275.887C116.627 275.511 116.744 275.139 116.977 274.855C117.21 274.57 117.539 274.396 117.893 274.37C118.246 274.344 118.595 274.468 118.862 274.716C132.923 287.743 139.606 301.65 138.188 314.931C136.116 334.345 117.28 350.447 85.1468 360.268C64.2255 366.663 39.2541 369.926 12.4004 369.926Z" fill="#DFDFDF"/>
<path d="M221.991 499.224L222.938 508.293L214.417 507.285V496.2L221.991 499.224Z" fill="#FFB8B8"/>
<path d="M310.995 499.224L310.048 508.293L318.569 507.285V496.2L310.995 499.224Z" fill="#FFB8B8"/>
<path d="M221.045 303.733L217.257 407.525C217.257 407.525 204.948 485.116 207.789 487.132C210.629 489.147 207.789 500.231 207.789 500.231L223.885 502.247C223.885 502.247 223.885 494.185 227.673 491.162C231.46 488.139 266.493 346.056 266.493 346.056L302.473 483.101C302.473 483.101 301.526 491.162 304.367 491.162C307.207 491.162 308.154 502.247 308.154 502.247H324.25V491.162C324.25 491.162 328.985 490.155 326.144 482.093C323.304 474.032 312.888 303.733 312.888 303.733L221.045 303.733Z" fill="#2F2E41"/>
<path d="M216.31 499.224C216.31 499.224 211.576 496.201 209.683 498.216C207.789 500.231 192.639 520.385 192.639 520.385C192.639 520.385 171.809 534.493 190.746 538.524C209.683 542.554 223.885 523.408 224.832 521.393C225.779 519.377 223.885 503.255 222.938 505.27C221.991 507.285 219.151 506.278 218.204 505.27C217.257 504.262 216.31 499.224 216.31 499.224Z" fill="#2F2E41"/>
<path d="M316.676 499.224C316.676 499.224 321.41 496.201 323.304 498.216C325.197 500.231 340.347 520.385 340.347 520.385C340.347 520.385 361.177 534.493 342.24 538.524C323.304 542.554 309.101 523.408 308.154 521.393C307.207 519.377 309.101 503.255 310.048 505.27C310.995 507.285 313.835 506.278 314.782 505.27C315.729 504.262 316.676 499.224 316.676 499.224Z" fill="#2F2E41"/>
<path d="M278.328 154.596C289.048 154.596 297.739 145.347 297.739 133.938C297.739 122.529 289.048 113.281 278.328 113.281C267.609 113.281 258.918 122.529 258.918 133.938C258.918 145.347 267.609 154.596 278.328 154.596Z" fill="#FFB8B8"/>
<path d="M265.546 145.527L262.706 176.765L285.43 181.803L291.111 144.519L265.546 145.527Z" fill="#FFB8B8"/>
<path d="M289.217 169.711C289.217 169.711 283.536 182.811 262.706 168.703L223.885 303.733C223.885 303.733 275.962 336.987 309.101 311.795L297.739 175.757L289.217 169.711Z" fill="#575A89"/>
<path d="M266.493 154.596L248.503 151.573L246.609 164.673C246.609 164.673 221.992 167.696 219.151 177.773L221.992 252.341C221.992 252.341 213.47 268.464 221.045 278.541C221.045 278.541 208.736 305.748 218.204 310.787C218.204 310.787 239.981 299.702 253.237 302.725C253.237 302.725 260.812 300.71 260.812 294.664C260.812 288.618 266.493 154.596 266.493 154.596Z" fill="#2F2E41"/>
<path d="M288.271 156.611L298.686 159.634L299.633 173.742C299.633 173.742 325.197 190.872 326.144 200.949C327.091 211.026 307.207 259.395 307.207 259.395C307.207 259.395 314.782 273.503 311.942 282.572C311.942 282.572 324.251 308.771 316.676 315.825C316.676 315.825 302.473 319.856 300.579 313.81C298.686 307.764 281.643 238.234 289.217 204.98C289.217 204.98 281.643 162.657 288.271 156.611Z" fill="#2F2E41"/>
<path d="M299.159 189.428H298.803V179.038C298.803 178.248 298.657 177.466 298.373 176.736C298.089 176.007 297.672 175.344 297.148 174.785C296.623 174.227 296 173.784 295.315 173.482C294.629 173.18 293.894 173.024 293.152 173.024H272.468C271.726 173.024 270.991 173.18 270.306 173.482C269.62 173.784 268.997 174.227 268.472 174.785C267.948 175.344 267.531 176.007 267.247 176.736C266.964 177.466 266.817 178.248 266.817 179.038V236.04C266.817 236.83 266.964 237.612 267.247 238.341C267.531 239.071 267.948 239.734 268.472 240.292C268.997 240.851 269.62 241.294 270.306 241.596C270.991 241.898 271.726 242.054 272.468 242.054H293.152C293.894 242.054 294.629 241.898 295.315 241.596C296 241.294 296.623 240.851 297.148 240.292C297.672 239.734 298.089 239.071 298.373 238.341C298.657 237.612 298.803 236.83 298.803 236.04V196.824H299.159V189.428Z" fill="white"/>
<path d="M308.154 230.172C308.154 230.172 300.58 203.972 289.217 212.034C277.855 220.095 296.792 242.264 296.792 242.264L308.154 230.172Z" fill="#FFB8B8"/>
<path d="M256.078 211.026C256.078 211.026 269.333 193.895 275.961 201.957C282.589 210.018 264.599 228.157 264.599 228.157L256.078 211.026Z" fill="#FFB8B8"/>
<path d="M221.991 176.765C221.991 176.765 217.257 175.757 214.417 184.826C211.576 193.895 201.161 228.157 201.161 234.203C201.161 240.249 204.948 264.433 225.779 260.403C246.609 256.372 271.227 228.157 271.227 228.157L257.971 206.995L229.566 225.134L221.991 176.765Z" fill="#2F2E41"/>
<path opacity="0.1" d="M226.083 202.889L230.04 224.63L259.392 206.492L231.933 217.576L225.88 201.592L226.083 202.889Z" fill="black"/>
<path opacity="0.1" d="M309.574 224.63L313.362 227.653L315.255 213.545L309.574 224.63Z" fill="black"/>
<path opacity="0.1" d="M221.518 262.922C221.518 262.922 249.329 254.87 262.409 237.231C262.409 237.231 248.976 260.906 221.518 262.922Z" fill="black"/>
<path opacity="0.1" d="M291.584 244.784C291.584 244.784 297.441 275.286 312.503 276.158C312.503 276.158 294.425 282.068 291.584 244.784Z" fill="black"/>
<path d="M322.357 196.919C322.357 196.919 325.197 198.934 327.091 208.003C328.985 217.072 341.294 251.333 336.559 259.395C331.825 267.456 324.25 285.595 308.154 273.503L292.058 242.264L308.154 226.141L314.782 231.18L322.357 196.919Z" fill="#2F2E41"/>
<path d="M259.695 139.178C259.695 139.178 243.416 111.099 260.755 109.639C266.541 109.208 272.191 107.57 277.383 104.817C283.131 101.704 290.366 99.3381 294.216 104.13C295.896 106.321 297.854 108.252 300.035 109.868C303.417 112.255 307.33 116.124 305.163 120.275L301.611 127.08L296.638 140.69C297.796 134.819 297.825 129.891 294.862 127.458C294.862 127.458 278.328 134.946 269.996 121.409C260.669 113.961 257.701 137.404 259.695 139.178Z" fill="#2F2E41"/>
<path d="M283.063 198.43C285.677 198.43 287.797 196.174 287.797 193.392C287.797 190.609 285.677 188.353 283.063 188.353C280.448 188.353 278.329 190.609 278.329 193.392C278.329 196.174 280.448 198.43 283.063 198.43Z" fill="#1DB95E"/>
</g>
<defs>
<clipPath id="clip0">
<rect width="577" height="549" fill="white" transform="translate(-202)"/>
</clipPath>
</defs>
</svg>
